<svg width="98" height="11" viewBox="0 0 98 11" fill="none" xmlns="http://www.w3.org/2000/svg">
<path d="M0.106789 10.7498L3.90079 1.14582H5.65079L9.45879 10.7498H8.01679L7.07879 8.36982H2.40279L1.47879 10.7498H0.106789ZM2.83679 7.23582H6.63079L5.46879 4.22582C5.44079 4.14182 5.39879 4.02515 5.34279 3.87582C5.28679 3.72648 5.22612 3.56315 5.16079 3.38582C5.09546 3.19915 5.03012 3.01248 4.96479 2.82582C4.89946 2.62982 4.83879 2.45248 4.78279 2.29382H4.69879C4.63346 2.48048 4.55879 2.69515 4.47479 2.93782C4.39079 3.18048 4.30679 3.41848 4.22279 3.65182C4.13879 3.87582 4.06879 4.06715 4.01279 4.22582L2.83679 7.23582ZM16.7558 10.7498V1.14582H21.8098C22.4631 1.14582 23.0044 1.26715 23.4338 1.50982C23.8724 1.74315 24.1991 2.07448 24.4138 2.50382C24.6284 2.92382 24.7358 3.40915 24.7358 3.95982C24.7358 4.62248 24.5864 5.19182 24.2878 5.66782C23.9891 6.14382 23.5784 6.48448 23.0558 6.68982L25.0718 10.7498H23.6158L21.7398 6.92782H18.0858V10.7498H16.7558ZM18.0858 5.79382H21.6838C22.2158 5.79382 22.6311 5.63048 22.9298 5.30382C23.2378 4.97715 23.3918 4.52915 23.3918 3.95982C23.3918 3.60515 23.3264 3.30648 23.1958 3.06382C23.0651 2.82115 22.8738 2.63448 22.6218 2.50382C22.3698 2.36382 22.0571 2.29382 21.6838 2.29382H18.0858V5.79382ZM36.8382 10.9178C35.8582 10.9178 35.0276 10.7405 34.3462 10.3858C33.6649 10.0218 33.1422 9.47582 32.7782 8.74782C32.4236 8.01048 32.2462 7.07715 32.2462 5.94782C32.2462 4.27715 32.6522 3.03115 33.4642 2.20982C34.2762 1.38848 35.4056 0.977817 36.8522 0.977817C37.6736 0.977817 38.4016 1.11315 39.0362 1.38382C39.6709 1.64515 40.1656 2.04648 40.5202 2.58782C40.8842 3.11982 41.0662 3.79182 41.0662 4.60382H39.7222C39.7222 4.04382 39.6009 3.58182 39.3582 3.21782C39.1249 2.85382 38.7936 2.58315 38.3642 2.40582C37.9349 2.21915 37.4309 2.12582 36.8522 2.12582C36.1802 2.12582 35.6016 2.25648 35.1162 2.51782C34.6309 2.77915 34.2622 3.18515 34.0102 3.73582C33.7582 4.27715 33.6322 4.97715 33.6322 5.83582V6.12982C33.6322 6.97915 33.7582 7.67448 34.0102 8.21582C34.2622 8.74782 34.6262 9.13982 35.1022 9.39182C35.5876 9.64382 36.1709 9.76982 36.8522 9.76982C37.4496 9.76982 37.9629 9.68115 38.3922 9.50382C38.8309 9.32648 39.1669 9.05582 39.4002 8.69182C39.6429 8.31848 39.7642 7.85182 39.7642 7.29182H41.0662C41.0662 8.12248 40.8796 8.80382 40.5062 9.33582C40.1422 9.86782 39.6429 10.2645 39.0082 10.5258C38.3736 10.7872 37.6502 10.9178 36.8382 10.9178ZM48.9218 10.7498V1.14582H50.2518V5.26182H55.4738V1.14582H56.8178V10.7498H55.4738V6.42382H50.2518V10.7498H48.9218ZM65.2304 10.7498V1.14582H66.5604V10.7498H65.2304ZM77.4828 10.7498L73.8988 1.14582H75.3408L77.8048 7.94982C77.8608 8.08048 77.9168 8.22982 77.9728 8.39782C78.0288 8.56582 78.0848 8.72915 78.1408 8.88782C78.1968 9.04648 78.2481 9.18648 78.2948 9.30782H78.3788C78.4161 9.19582 78.4628 9.06048 78.5188 8.90182C78.5748 8.74315 78.6308 8.58448 78.6868 8.42582C78.7428 8.25782 78.7988 8.09915 78.8548 7.94982L81.2908 1.14582H82.6908L79.0928 10.7498H77.4828ZM90.0409 10.7498V1.14582H97.4329V2.29382H91.3709V5.26182H96.8169V6.40982H91.3709V9.60182H97.5169V10.7498H90.0409Z" fill="#414141"/>
</svg>
