<svg width="99" height="25" viewBox="0 0 99 25" fill="none" xmlns="http://www.w3.org/2000/svg">
<path d="M11.9857 24.1578C8.223 24.1578 5.35566 23.1718 3.38366 21.1998C1.43433 19.2278 0.459664 16.1905 0.459664 12.0878C0.459664 9.41315 0.912997 7.18048 1.81966 5.38982C2.72633 3.59915 4.06366 2.26182 5.83166 1.37782C7.59966 0.471149 9.753 0.0178164 12.2917 0.0178164C13.8783 0.0178164 15.3177 0.187816 16.6097 0.527816C17.9017 0.867816 19.0123 1.38915 19.9417 2.09182C20.8937 2.77182 21.619 3.63315 22.1177 4.67582C22.639 5.71848 22.8997 6.95382 22.8997 8.38182H19.6017C19.6017 7.38448 19.4203 6.53448 19.0577 5.83182C18.695 5.10648 18.1737 4.51715 17.4937 4.06381C16.8363 3.61048 16.0657 3.29315 15.1817 3.11182C14.2977 2.90782 13.357 2.80581 12.3597 2.80581C10.9997 2.80581 9.787 2.97582 8.72166 3.31582C7.65633 3.65582 6.761 4.18848 6.03566 4.91382C5.31033 5.63915 4.755 6.56848 4.36966 7.70182C3.98433 8.83515 3.79166 10.1838 3.79166 11.7478V12.4618C3.79166 14.5698 4.109 16.2811 4.74366 17.5958C5.401 18.9105 6.34166 19.8738 7.56566 20.4858C8.78966 21.0752 10.263 21.3698 11.9857 21.3698C13.731 21.3698 15.1703 21.1318 16.3037 20.6558C17.437 20.1572 18.2757 19.4092 18.8197 18.4118C19.3863 17.4145 19.6697 16.1565 19.6697 14.6378V14.2298H11.4417V11.4758H22.9337V23.7498H20.4857L20.1457 20.7918C19.5337 21.5852 18.8083 22.2312 17.9697 22.7298C17.131 23.2285 16.2017 23.5912 15.1817 23.8178C14.1843 24.0445 13.119 24.1578 11.9857 24.1578ZM25.8542 23.7498L35.0682 0.425815H39.3182L48.5662 23.7498H45.0642L42.7862 17.9698H31.4302L29.1862 23.7498H25.8542ZM32.4842 15.2158H41.6982L38.8762 7.90582C38.8082 7.70182 38.7062 7.41848 38.5702 7.05582C38.4342 6.69315 38.2869 6.29648 38.1282 5.86582C37.9695 5.41248 37.8109 4.95915 37.6522 4.50582C37.4935 4.02982 37.3462 3.59915 37.2102 3.21382H37.0062C36.8475 3.66715 36.6662 4.18848 36.4622 4.77782C36.2582 5.36715 36.0542 5.94515 35.8502 6.51182C35.6462 7.05582 35.4762 7.52048 35.3402 7.90582L32.4842 15.2158ZM51.716 23.7498V0.425815H56.714L62.018 15.5558C62.154 15.9638 62.29 16.4172 62.426 16.9158C62.5847 17.3918 62.7207 17.8451 62.834 18.2758C62.97 18.7065 63.072 19.0805 63.14 19.3978H63.378C63.446 19.0578 63.5367 18.6725 63.65 18.2418C63.7633 17.7885 63.888 17.3238 64.024 16.8478C64.16 16.3718 64.2847 15.9411 64.398 15.5558L69.702 0.425815H74.666V23.7498H71.436V10.0818C71.436 9.37915 71.4473 8.61982 71.47 7.80382C71.4927 6.96515 71.5153 6.20582 71.538 5.52582C71.5607 4.82315 71.572 4.32448 71.572 4.02982H71.3C71.232 4.32448 71.1187 4.74382 70.96 5.28782C70.8013 5.80915 70.6313 6.36448 70.45 6.95382C70.2913 7.52048 70.144 8.03048 70.008 8.48382L64.534 23.7498H61.746L56.272 8.48382C56.136 8.09848 55.9887 7.65648 55.83 7.15782C55.694 6.63648 55.5467 6.10382 55.388 5.55982C55.252 5.01582 55.116 4.50582 54.98 4.02982H54.742C54.7647 4.52848 54.776 5.15182 54.776 5.89982C54.7987 6.62515 54.81 7.36182 54.81 8.10982C54.8327 8.83515 54.844 9.49248 54.844 10.0818V23.7498H51.716ZM80.5031 23.7498V0.425815H98.4551V3.21382H83.7331V10.4218H96.9591V13.2098H83.7331V20.9618H98.6591V23.7498H80.5031Z" fill="#6A20B4"/>
</svg>
