<svg width="32" height="32" viewBox="0 0 32 32" fill="none" xmlns="http://www.w3.org/2000/svg">
<path fill-rule="evenodd" clip-rule="evenodd" d="M16.8 4C19.2686 4 21.3105 4.7888 23.1695 6.11541C23.2 6.11541 23.2 6.15126 23.2 6.18711C23.2 6.22297 23.1695 6.22297 23.139 6.22297C20.7619 5.61345 17.1657 8.01569 16.8305 8.26667H16.8H16.7695C16.4343 8.01569 12.8381 5.61345 10.461 6.22297C10.4305 6.22297 10.4 6.22297 10.4 6.18711C10.4 6.15126 10.4 6.11541 10.4305 6.11541C12.2895 4.7888 14.3314 4 16.8 4ZM24.9798 26.5265C26.8997 24.5395 20.5516 17.523 16.8047 14.6667C16.8047 14.6667 16.7737 14.6667 16.7737 14.6978C13.0577 17.523 6.67868 24.5395 8.62956 26.5265C10.7972 28.4513 13.6771 29.6001 16.8047 29.6001C19.9323 29.6001 22.7812 28.4513 24.9798 26.5265ZM7.50685 8.32746C7.49224 8.32746 7.48493 8.33548 7.47763 8.3435C7.47032 8.35152 7.46301 8.35954 7.4484 8.35954C5.31507 10.7019 4 13.9426 4 17.5042C4 20.4241 4.90594 23.1515 6.39635 25.3013C6.39635 25.3334 6.42557 25.3334 6.45479 25.3334C6.48402 25.3334 6.48402 25.3013 6.45479 25.2692C5.54886 22.221 10.137 14.8731 12.5041 11.7928L12.5333 11.7607C12.5333 11.7286 12.5333 11.7286 12.5041 11.7286C8.90959 7.81407 7.71142 8.2312 7.50685 8.32746ZM21.0668 11.7475L21.096 11.7154C24.6905 7.82909 25.8887 8.24663 26.0641 8.31086C26.0762 8.31086 26.0833 8.31086 26.0895 8.31317C26.0983 8.31641 26.1054 8.32421 26.1225 8.34298C28.2851 10.6876 29.6001 13.9315 29.6001 17.4966C29.6001 20.4193 28.6942 23.1494 27.2038 25.3013C27.2038 25.3334 27.1746 25.3334 27.1453 25.3334V25.2691C28.022 22.2179 23.4631 14.8629 21.096 11.7796C21.0668 11.7796 21.0668 11.7475 21.0668 11.7475Z" fill="white"/>
</svg>
