<svg width="98" height="11" viewBox="0 0 98 11" fill="none" xmlns="http://www.w3.org/2000/svg">
<path d="M0.106789 10.7498L3.90079 1.14576H5.65079L9.45879 10.7498H8.01679L7.07879 8.36976H2.40279L1.47879 10.7498H0.106789ZM2.83679 7.23576H6.63079L5.46879 4.22576C5.44079 4.14176 5.39879 4.02509 5.34279 3.87576C5.28679 3.72642 5.22612 3.56309 5.16079 3.38576C5.09546 3.19909 5.03012 3.01242 4.96479 2.82576C4.89946 2.62976 4.83879 2.45242 4.78279 2.29376H4.69879C4.63346 2.48042 4.55879 2.69509 4.47479 2.93776C4.39079 3.18042 4.30679 3.41842 4.22279 3.65176C4.13879 3.87576 4.06879 4.06709 4.01279 4.22576L2.83679 7.23576ZM16.7558 10.7498V1.14576H21.8098C22.4631 1.14576 23.0044 1.26709 23.4338 1.50976C23.8724 1.74309 24.1991 2.07442 24.4138 2.50376C24.6284 2.92376 24.7358 3.40909 24.7358 3.95976C24.7358 4.62242 24.5864 5.19176 24.2878 5.66776C23.9891 6.14376 23.5784 6.48442 23.0558 6.68976L25.0718 10.7498H23.6158L21.7398 6.92776H18.0858V10.7498H16.7558ZM18.0858 5.79376H21.6838C22.2158 5.79376 22.6311 5.63042 22.9298 5.30376C23.2378 4.97709 23.3918 4.52909 23.3918 3.95976C23.3918 3.60509 23.3264 3.30642 23.1958 3.06376C23.0651 2.82109 22.8738 2.63442 22.6218 2.50376C22.3698 2.36376 22.0571 2.29376 21.6838 2.29376H18.0858V5.79376ZM36.8382 10.9178C35.8582 10.9178 35.0276 10.7404 34.3462 10.3858C33.6649 10.0218 33.1422 9.47576 32.7782 8.74776C32.4236 8.01042 32.2462 7.07709 32.2462 5.94776C32.2462 4.27709 32.6522 3.03109 33.4642 2.20976C34.2762 1.38842 35.4056 0.977756 36.8522 0.977756C37.6736 0.977756 38.4016 1.11309 39.0362 1.38376C39.6709 1.64509 40.1656 2.04642 40.5202 2.58776C40.8842 3.11976 41.0662 3.79176 41.0662 4.60376H39.7222C39.7222 4.04376 39.6009 3.58176 39.3582 3.21776C39.1249 2.85376 38.7936 2.58309 38.3642 2.40576C37.9349 2.21909 37.4309 2.12576 36.8522 2.12576C36.1802 2.12576 35.6016 2.25642 35.1162 2.51776C34.6309 2.77909 34.2622 3.18509 34.0102 3.73576C33.7582 4.27709 33.6322 4.97709 33.6322 5.83576V6.12976C33.6322 6.97909 33.7582 7.67442 34.0102 8.21576C34.2622 8.74776 34.6262 9.13976 35.1022 9.39176C35.5876 9.64376 36.1709 9.76976 36.8522 9.76976C37.4496 9.76976 37.9629 9.68109 38.3922 9.50376C38.8309 9.32642 39.1669 9.05576 39.4002 8.69176C39.6429 8.31842 39.7642 7.85176 39.7642 7.29176H41.0662C41.0662 8.12242 40.8796 8.80376 40.5062 9.33576C40.1422 9.86776 39.6429 10.2644 39.0082 10.5258C38.3736 10.7871 37.6502 10.9178 36.8382 10.9178ZM48.9218 10.7498V1.14576H50.2518V5.26176H55.4738V1.14576H56.8178V10.7498H55.4738V6.42376H50.2518V10.7498H48.9218ZM65.2304 10.7498V1.14576H66.5604V10.7498H65.2304ZM77.4828 10.7498L73.8988 1.14576H75.3408L77.8048 7.94976C77.8608 8.08042 77.9168 8.22976 77.9728 8.39776C78.0288 8.56576 78.0848 8.72909 78.1408 8.88776C78.1968 9.04642 78.2481 9.18642 78.2948 9.30776H78.3788C78.4161 9.19576 78.4628 9.06042 78.5188 8.90176C78.5748 8.74309 78.6308 8.58442 78.6868 8.42576C78.7428 8.25776 78.7988 8.09909 78.8548 7.94976L81.2908 1.14576H82.6908L79.0928 10.7498H77.4828ZM90.0409 10.7498V1.14576H97.4329V2.29376H91.3709V5.26176H96.8169V6.40976H91.3709V9.60176H97.5169V10.7498H90.0409Z" fill="#E6EFF8"/>
</svg>
