<svg width="99" height="25" viewBox="0 0 99 25" fill="none" xmlns="http://www.w3.org/2000/svg">
<path d="M11.9857 24.1578C8.223 24.1578 5.35566 23.1718 3.38366 21.1998C1.43433 19.2278 0.459664 16.1904 0.459664 12.0878C0.459664 9.41309 0.912997 7.18042 1.81966 5.38976C2.72633 3.59909 4.06366 2.26175 5.83166 1.37775C7.59966 0.471088 9.753 0.0177554 12.2917 0.0177554C13.8783 0.0177554 15.3177 0.187755 16.6097 0.527755C17.9017 0.867755 19.0123 1.38909 19.9417 2.09176C20.8937 2.77175 21.619 3.63309 22.1177 4.67575C22.639 5.71842 22.8997 6.95375 22.8997 8.38176H19.6017C19.6017 7.38442 19.4203 6.53442 19.0577 5.83176C18.695 5.10642 18.1737 4.51709 17.4937 4.06375C16.8363 3.61042 16.0657 3.29309 15.1817 3.11175C14.2977 2.90775 13.357 2.80575 12.3597 2.80575C10.9997 2.80575 9.787 2.97575 8.72166 3.31576C7.65633 3.65576 6.761 4.18842 6.03566 4.91376C5.31033 5.63909 4.755 6.56842 4.36966 7.70175C3.98433 8.83509 3.79166 10.1838 3.79166 11.7478V12.4618C3.79166 14.5698 4.109 16.2811 4.74366 17.5958C5.401 18.9104 6.34166 19.8738 7.56566 20.4858C8.78966 21.0751 10.263 21.3698 11.9857 21.3698C13.731 21.3698 15.1703 21.1318 16.3037 20.6558C17.437 20.1571 18.2757 19.4091 18.8197 18.4118C19.3863 17.4144 19.6697 16.1564 19.6697 14.6378V14.2298H11.4417V11.4758H22.9337V23.7498H20.4857L20.1457 20.7918C19.5337 21.5851 18.8083 22.2311 17.9697 22.7298C17.131 23.2284 16.2017 23.5911 15.1817 23.8178C14.1843 24.0444 13.119 24.1578 11.9857 24.1578ZM25.8542 23.7498L35.0682 0.425754H39.3182L48.5662 23.7498H45.0642L42.7862 17.9698H31.4302L29.1862 23.7498H25.8542ZM32.4842 15.2158H41.6982L38.8762 7.90576C38.8082 7.70176 38.7062 7.41842 38.5702 7.05575C38.4342 6.69309 38.2869 6.29642 38.1282 5.86576C37.9695 5.41242 37.8109 4.95909 37.6522 4.50575C37.4935 4.02976 37.3462 3.59909 37.2102 3.21375H37.0062C36.8475 3.66709 36.6662 4.18842 36.4622 4.77775C36.2582 5.36709 36.0542 5.94509 35.8502 6.51175C35.6462 7.05576 35.4762 7.52042 35.3402 7.90576L32.4842 15.2158ZM51.716 23.7498V0.425754H56.714L62.018 15.5558C62.154 15.9638 62.29 16.4171 62.426 16.9158C62.5847 17.3918 62.7207 17.8451 62.834 18.2758C62.97 18.7064 63.072 19.0804 63.14 19.3978H63.378C63.446 19.0578 63.5367 18.6724 63.65 18.2418C63.7633 17.7884 63.888 17.3238 64.024 16.8478C64.16 16.3718 64.2847 15.9411 64.398 15.5558L69.702 0.425754H74.666V23.7498H71.436V10.0818C71.436 9.37909 71.4473 8.61976 71.47 7.80376C71.4927 6.96509 71.5153 6.20575 71.538 5.52576C71.5607 4.82309 71.572 4.32442 71.572 4.02975H71.3C71.232 4.32442 71.1187 4.74375 70.96 5.28775C70.8013 5.80909 70.6313 6.36442 70.45 6.95376C70.2913 7.52042 70.144 8.03042 70.008 8.48375L64.534 23.7498H61.746L56.272 8.48375C56.136 8.09842 55.9887 7.65642 55.83 7.15775C55.694 6.63642 55.5467 6.10375 55.388 5.55975C55.252 5.01576 55.116 4.50576 54.98 4.02975H54.742C54.7647 4.52842 54.776 5.15175 54.776 5.89975C54.7987 6.62509 54.81 7.36176 54.81 8.10976C54.8327 8.83509 54.844 9.49242 54.844 10.0818V23.7498H51.716ZM80.5031 23.7498V0.425754H98.4551V3.21375H83.7331V10.4218H96.9591V13.2098H83.7331V20.9618H98.6591V23.7498H80.5031Z" fill="#EFC0FF"/>
</svg>
