<svg width="28" height="28" viewBox="0 0 28 28" fill="none" xmlns="http://www.w3.org/2000/svg">
<path fill-rule="evenodd" clip-rule="evenodd" d="M4.66667 5.83435C4.35725 5.83435 4.0605 5.95727 3.84171 6.17606C3.62292 6.39485 3.5 6.6916 3.5 7.00102C3.5 7.31044 3.62292 7.60718 3.84171 7.82597C4.0605 8.04477 4.35725 8.16768 4.66667 8.16768H23.3333C23.6428 8.16768 23.9395 8.04477 24.1583 7.82597C24.3771 7.60718 24.5 7.31044 24.5 7.00102C24.5 6.6916 24.3771 6.39485 24.1583 6.17606C23.9395 5.95727 23.6428 5.83435 23.3333 5.83435H4.66667ZM3.5 14.001C3.5 13.6916 3.62292 13.3949 3.84171 13.1761C4.0605 12.9573 4.35725 12.8344 4.66667 12.8344H23.3333C23.6428 12.8344 23.9395 12.9573 24.1583 13.1761C24.3771 13.3949 24.5 13.6916 24.5 14.001C24.5 14.3104 24.3771 14.6072 24.1583 14.826C23.9395 15.0448 23.6428 15.1677 23.3333 15.1677H4.66667C4.35725 15.1677 4.0605 15.0448 3.84171 14.826C3.62292 14.6072 3.5 14.3104 3.5 14.001ZM3.5 21.001C3.5 20.6916 3.62292 20.3949 3.84171 20.1761C4.0605 19.9573 4.35725 19.8344 4.66667 19.8344H23.3333C23.6428 19.8344 23.9395 19.9573 24.1583 20.1761C24.3771 20.3949 24.5 20.6916 24.5 21.001C24.5 21.3104 24.3771 21.6072 24.1583 21.826C23.9395 22.0448 23.6428 22.1677 23.3333 22.1677H4.66667C4.35725 22.1677 4.0605 22.0448 3.84171 21.826C3.62292 21.6072 3.5 21.3104 3.5 21.001Z" fill="white"/>
</svg>
