<svg width="49" height="48" viewBox="0 0 49 48" fill="none" xmlns="http://www.w3.org/2000/svg">
<path fill-rule="evenodd" clip-rule="evenodd" d="M29.4589 11.9709C29.738 12.25 29.8947 12.6285 29.8947 13.0232C29.8947 13.4179 29.738 13.7964 29.4589 14.0755L20.0926 23.4418L29.4589 32.8081C29.7301 33.0889 29.8801 33.4648 29.8767 33.8551C29.8733 34.2453 29.7168 34.6186 29.4408 34.8946C29.1649 35.1705 28.7915 35.3271 28.4013 35.3304C28.0111 35.3338 27.6351 35.1838 27.3544 34.9127L16.9358 24.4941C16.6567 24.215 16.5 23.8365 16.5 23.4418C16.5 23.0472 16.6567 22.6686 16.9358 22.3895L27.3544 11.9709C27.6335 11.6919 28.012 11.5352 28.4067 11.5352C28.8013 11.5352 29.1798 11.6919 29.4589 11.9709Z" fill="white"/>
</svg>
