<svg width="28" height="28" viewBox="0 0 28 28" fill="none" xmlns="http://www.w3.org/2000/svg">
<path fill-rule="evenodd" clip-rule="evenodd" d="M4.66667 5.83431C4.35725 5.83431 4.0605 5.95723 3.84171 6.17602C3.62292 6.39481 3.5 6.69156 3.5 7.00098C3.5 7.3104 3.62292 7.60714 3.84171 7.82594C4.0605 8.04473 4.35725 8.16765 4.66667 8.16765H23.3333C23.6428 8.16765 23.9395 8.04473 24.1583 7.82594C24.3771 7.60714 24.5 7.3104 24.5 7.00098C24.5 6.69156 24.3771 6.39481 24.1583 6.17602C23.9395 5.95723 23.6428 5.83431 23.3333 5.83431H4.66667ZM3.5 14.001C3.5 13.6916 3.62292 13.3948 3.84171 13.176C4.0605 12.9572 4.35725 12.8343 4.66667 12.8343H23.3333C23.6428 12.8343 23.9395 12.9572 24.1583 13.176C24.3771 13.3948 24.5 13.6916 24.5 14.001C24.5 14.3104 24.3771 14.6071 24.1583 14.8259C23.9395 15.0447 23.6428 15.1676 23.3333 15.1676H4.66667C4.35725 15.1676 4.0605 15.0447 3.84171 14.8259C3.62292 14.6071 3.5 14.3104 3.5 14.001ZM3.5 21.001C3.5 20.6916 3.62292 20.3948 3.84171 20.176C4.0605 19.9572 4.35725 19.8343 4.66667 19.8343H23.3333C23.6428 19.8343 23.9395 19.9572 24.1583 20.176C24.3771 20.3948 24.5 20.6916 24.5 21.001C24.5 21.3104 24.3771 21.6071 24.1583 21.8259C23.9395 22.0447 23.6428 22.1676 23.3333 22.1676H4.66667C4.35725 22.1676 4.0605 22.0447 3.84171 21.8259C3.62292 21.6071 3.5 21.3104 3.5 21.001Z" fill="#1B1B1B"/>
</svg>
