<svg width="28" height="28" viewBox="0 0 28 28" fill="none" xmlns="http://www.w3.org/2000/svg">
<path fill-rule="evenodd" clip-rule="evenodd" d="M12.8022 5.76804C12.5688 6.94987 12.1768 8.72321 10.7418 10.1582C10.6112 10.2889 10.4677 10.4265 10.316 10.5735C8.98366 11.858 7.00033 13.7714 7.00033 16.9167C7.00033 18.6235 7.73533 20.2417 8.86816 21.4375C10.008 22.6404 11.4675 23.3334 12.8337 23.3334H18.667C19.0777 23.3334 19.4207 23.2284 19.6237 23.0919C19.7928 22.9799 19.8337 22.8819 19.8337 22.75C19.8337 22.6194 19.7928 22.5202 19.6237 22.4082C19.4207 22.2729 19.0777 22.1667 18.667 22.1667H17.5003C17.1909 22.1667 16.8942 22.0438 16.6754 21.825C16.4566 21.6062 16.3337 21.3095 16.3337 21C16.3337 20.6906 16.4566 20.3939 16.6754 20.1751C16.8942 19.9563 17.1909 19.8334 17.5003 19.8334H19.2503C19.661 19.8334 20.004 19.7284 20.207 19.5919C20.3762 19.4799 20.417 19.3819 20.417 19.25C20.417 19.1194 20.3762 19.0202 20.207 18.9082C20.004 18.7729 19.661 18.6667 19.2503 18.6667H18.0837C17.7742 18.6667 17.4775 18.5438 17.2587 18.325C17.0399 18.1062 16.917 17.8095 16.917 17.5C16.917 17.1906 17.0399 16.8939 17.2587 16.6751C17.4775 16.4563 17.7742 16.3334 18.0837 16.3334H19.8337C20.2443 16.3334 20.5873 16.2284 20.7903 16.0919C20.9595 15.9799 21.0003 15.8819 21.0003 15.75C21.0003 15.6194 20.9595 15.5202 20.7903 15.4082C20.5873 15.2729 20.2443 15.1667 19.8337 15.1667H18.667C18.3576 15.1667 18.0608 15.0438 17.842 14.825C17.6232 14.6062 17.5003 14.3095 17.5003 14C17.5003 13.6906 17.6232 13.3939 17.842 13.1751C18.0608 12.9563 18.3576 12.8334 18.667 12.8334H19.8337C20.2443 12.8334 20.5873 12.7284 20.7903 12.5919C20.9595 12.4799 21.0003 12.3819 21.0003 12.25C21.0003 12.1194 20.9595 12.0202 20.7903 11.9082C20.5873 11.7729 20.2443 11.6667 19.8337 11.6667H14.5837C14.3982 11.6668 14.2153 11.6226 14.0504 11.5378C13.8854 11.4531 13.7429 11.3302 13.6349 11.1794C13.5269 11.0287 13.4564 10.8543 13.4293 10.6708C13.4021 10.4873 13.4191 10.3 13.4788 10.1244V10.1232L13.4835 10.1115L13.4987 10.0649L13.5605 9.86654C13.6118 9.69154 13.683 9.43837 13.7565 9.13387C13.9339 8.42023 14.0425 7.69123 14.0808 6.95687C14.1112 6.15771 14.005 5.54521 13.7915 5.17187C13.6655 4.95021 13.4753 4.75071 13.0332 4.68771C12.9772 4.87904 12.9258 5.14037 12.8512 5.52304L12.8022 5.76804ZM16.1038 9.33337C16.2462 8.68237 16.3815 7.87154 16.413 7.04321C16.448 6.09237 16.3547 4.95487 15.818 4.01571C15.223 2.97037 14.1707 2.33337 12.717 2.33337C12.2713 2.33337 11.8537 2.48037 11.5153 2.77671C11.2085 3.04504 11.0335 3.37871 10.925 3.64704C10.7523 4.07521 10.645 4.63054 10.5552 5.09954L10.5132 5.31537C10.2868 6.46687 9.99049 7.61021 9.09216 8.50854C8.98949 8.61121 8.86466 8.73021 8.72233 8.86437C7.41216 10.1057 4.66699 12.7085 4.66699 16.9167C4.66699 19.2932 5.68199 21.4667 7.17416 23.0417C8.65933 24.6097 10.6998 25.6667 12.8337 25.6667H18.667C19.423 25.6667 20.2467 25.48 20.9187 25.0332C21.6245 24.5619 22.167 23.7849 22.167 22.75C22.167 22.2029 22.0153 21.7292 21.7703 21.3325C22.3408 20.8542 22.7503 20.1507 22.7503 19.25C22.7503 18.7029 22.5987 18.228 22.3537 17.8337C22.9242 17.3554 23.3337 16.6507 23.3337 15.75C23.3337 15.0395 23.0793 14.4515 22.6908 14C23.0782 13.5485 23.3337 12.9605 23.3337 12.25C23.3337 11.214 22.7912 10.4382 22.0853 9.96687C21.4133 9.51887 20.5897 9.33337 19.8337 9.33337H16.1038Z" fill="#BF5FE1"/>
</svg>
