<svg width="40" height="40" viewBox="0 0 40 40" fill="none" xmlns="http://www.w3.org/2000/svg">
<rect width="40" height="40" rx="10" fill="#E1E1E1"/>
<path fill-rule="evenodd" clip-rule="evenodd" d="M27.5432 8.79993H13.2575C11.6796 8.79993 10.4004 10.0791 10.4004 11.6571V15.9428C10.4004 17.5207 11.6796 18.7999 13.2575 18.7999H27.5432C29.1212 18.7999 30.4004 17.5207 30.4004 15.9428V11.6571C30.4004 10.0791 29.1212 8.79993 27.5432 8.79993ZM11.829 11.6571C11.829 10.8681 12.4686 10.2285 13.2576 10.2285H27.5433C28.3323 10.2285 28.9719 10.8681 28.9719 11.6571V15.9428C28.9719 16.7318 28.3323 17.3714 27.5433 17.3714H13.2576C12.4686 17.3714 11.829 16.7318 11.829 15.9428V11.6571ZM13.2575 21.6571H27.5432C29.1212 21.6571 30.4004 22.9362 30.4004 24.5142V28.7999C30.4004 30.3779 29.1212 31.6571 27.5432 31.6571H13.2575C11.6796 31.6571 10.4004 30.3779 10.4004 28.7999V24.5142C10.4004 22.9362 11.6796 21.6571 13.2575 21.6571ZM11.829 24.5141C11.829 23.7252 12.4686 23.0856 13.2576 23.0856H27.5433C28.3323 23.0856 28.9719 23.7252 28.9719 24.5141V28.7999C28.9719 29.5888 28.3323 30.2284 27.5433 30.2284H13.2576C12.4686 30.2284 11.829 29.5888 11.829 28.7999V24.5141Z" fill="#515151"/>
</svg>
