<?xml version="1.0" encoding="utf-8"?>
<!-- Generator: Adobe Illustrator 24.0.2, SVG Export Plug-In . SVG Version: 6.00 Build 0)  -->
<svg width="16" height="16" version="1.1" id="Layer_1" xmlns="http://www.w3.org/2000/svg" xmlns:xlink="http://www.w3.org/1999/xlink" x="0px" y="0px"
	 viewBox="0 0 16 16" style="enable-background:new 0 0 16 16;" xml:space="preserve">
<style type="text/css">
	.st0{fill-rule:evenodd;clip-rule:evenodd;fill:#FFFFFF;}
	.st1{fill:#FFFFFF;}
</style>
<path class="st0" d="M11.9,16H9.4c-0.1,0-0.1-0.1-0.1-0.1V0.1c0-0.1,0-0.1,0.1-0.1h2.5C14.2,0,16,1.8,16,4.1v7.8
	C16,14.2,14.2,16,11.9,16z M14.1,8.8c0-0.9-0.7-1.6-1.6-1.6c-0.9,0-1.6,0.7-1.6,1.6c0,0.9,0.7,1.6,1.6,1.6
	C13.4,10.4,14.1,9.7,14.1,8.8z"/>
<path class="st1" d="M2.7,5.3c0,0.7,0.6,1.3,1.3,1.3c0.7,0,1.3-0.6,1.3-1.3C5.3,4.6,4.7,4,4,4C3.3,4,2.7,4.6,2.7,5.3z"/>
<path class="st0" d="M4.3,0h3.6C7.9,0,8,0.1,8,0.1v15.8C8,15.9,7.9,16,7.9,16H4.3C1.9,16,0,14.2,0,11.9V4.1C0,1.8,1.9,0,4.3,0z
	 M4.3,14.7h2.4V1.3H4.3c-0.8,0-1.5,0.3-2.1,0.8c-0.6,0.5-0.9,1.2-0.9,2v7.8c0,0.8,0.3,1.5,0.9,2C2.7,14.4,3.5,14.7,4.3,14.7z"/>
</svg>
