<svg width="28" height="28" viewBox="0 0 28 28" fill="none" xmlns="http://www.w3.org/2000/svg">
<path fill-rule="evenodd" clip-rule="evenodd" d="M13.1748 2.6752C13.3936 2.45649 13.6903 2.33362 13.9997 2.33362C14.309 2.33362 14.6057 2.45649 14.8245 2.6752L19.4912 7.34187C19.7037 7.5619 19.8213 7.85661 19.8186 8.1625C19.816 8.4684 19.6933 8.76101 19.477 8.97732C19.2607 9.19363 18.968 9.31633 18.6621 9.31899C18.3562 9.32165 18.0615 9.20405 17.8415 8.99154L15.1663 6.31637V17.5C15.1663 17.8095 15.0434 18.1062 14.8246 18.325C14.6058 18.5438 14.3091 18.6667 13.9997 18.6667C13.6903 18.6667 13.3935 18.5438 13.1747 18.325C12.9559 18.1062 12.833 17.8095 12.833 17.5V6.31637L10.1578 8.99154C9.9378 9.20405 9.6431 9.32165 9.33721 9.31899C9.03131 9.31633 8.7387 9.19363 8.52239 8.97732C8.30608 8.76101 8.18338 8.4684 8.18072 8.1625C8.17806 7.85661 8.29566 7.5619 8.50817 7.34187L13.1748 2.6752ZM5.83301 15.1667C5.83301 14.2384 6.20176 13.3482 6.85813 12.6918C7.51451 12.0354 8.40475 11.6667 9.33301 11.6667H10.4997C10.8091 11.6667 11.1058 11.7896 11.3246 12.0084C11.5434 12.2272 11.6663 12.5239 11.6663 12.8334C11.6663 13.1428 11.5434 13.4395 11.3246 13.6583C11.1058 13.8771 10.8091 14 10.4997 14H9.33301C9.02359 14 8.72684 14.123 8.50805 14.3417C8.28926 14.5605 8.16634 14.8573 8.16634 15.1667V22.1667C8.16634 22.4761 8.28926 22.7729 8.50805 22.9917C8.72684 23.2105 9.02359 23.3334 9.33301 23.3334H18.6663C18.9758 23.3334 19.2725 23.2105 19.4913 22.9917C19.7101 22.7729 19.833 22.4761 19.833 22.1667V15.1667C19.833 14.8573 19.7101 14.5605 19.4913 14.3417C19.2725 14.123 18.9758 14 18.6663 14H17.4997C17.1903 14 16.8935 13.8771 16.6747 13.6583C16.4559 13.4395 16.333 13.1428 16.333 12.8334C16.333 12.5239 16.4559 12.2272 16.6747 12.0084C16.8935 11.7896 17.1903 11.6667 17.4997 11.6667H18.6663C19.5946 11.6667 20.4848 12.0354 21.1412 12.6918C21.7976 13.3482 22.1663 14.2384 22.1663 15.1667V22.1667C22.1663 23.095 21.7976 23.9852 21.1412 24.6416C20.4848 25.298 19.5946 25.6667 18.6663 25.6667H9.33301C8.40475 25.6667 7.51451 25.298 6.85813 24.6416C6.20176 23.9852 5.83301 23.095 5.83301 22.1667V15.1667Z" fill="#BF5FE1"/>
</svg>
