<?xml version="1.0" encoding="utf-8"?>
<!-- Generator: Adobe Illustrator 24.0.2, SVG Export Plug-In . SVG Version: 6.00 Build 0)  -->
<svg width="32" height="32" version="1.1" id="Layer_1" xmlns="http://www.w3.org/2000/svg" xmlns:xlink="http://www.w3.org/1999/xlink" x="0px" y="0px"
	 viewBox="0 0 32 32" style="enable-background:new 0 0 32 32;" xml:space="preserve">
<style type="text/css">
	.st0{fill-rule:evenodd;clip-rule:evenodd;fill:#FFFFFF;}
	.st1{fill:#FFFFFF;}
</style>
<path class="st0" d="M23.8,32h-5c-0.2,0-0.2-0.2-0.2-0.2V0.2c0-0.2,0-0.2,0.2-0.2h5C28.4,0,32,3.6,32,8.2v15.6
	C32,28.4,28.4,32,23.8,32z M28.2,17.6c0-1.8-1.4-3.2-3.2-3.2c-1.8,0-3.2,1.4-3.2,3.2s1.4,3.2,3.2,3.2C26.8,20.8,28.2,19.4,28.2,17.6
	z"/>
<path class="st1" d="M5.4,10.6c0,1.4,1.2,2.6,2.6,2.6s2.6-1.2,2.6-2.6S9.4,8,8,8S5.4,9.2,5.4,10.6z"/>
<path class="st0" d="M8.6,0h7.2L16,0.2v31.6c0,0-0.2,0.2-0.2,0.2H8.6C3.8,32,0,28.4,0,23.8V8.2C0,3.6,3.8,0,8.6,0z M8.6,29.4h4.8
	V2.6H8.6c-1.6,0-3,0.6-4.2,1.6s-1.8,2.4-1.8,4v15.6c0,1.6,0.6,3,1.8,4C5.4,28.8,7,29.4,8.6,29.4z"/>
</svg>
