<svg width="32" height="32" viewBox="0 0 32 32" fill="none" xmlns="http://www.w3.org/2000/svg">
<path d="M12.7354 2.00012L12.7354 26.37L17.8137 28.1182V7.68437C17.8137 6.7215 18.2088 6.08219 18.8425 6.30205C19.6711 6.55175 19.8321 7.43872 19.8321 8.39088V16.5518C22.9931 18.2143 25.4817 16.551 25.4817 12.1647C25.4817 7.68263 24.0227 5.68592 19.7294 4.08055C18.036 3.46789 14.8977 2.43405 12.7354 2.00012Z" fill="white"/>
<path d="M19.1338 24.5507L26.8102 21.0938C27.6786 20.6865 27.8113 20.1332 27.1085 19.8424C26.3947 19.5462 25.1205 19.631 24.2429 20.0297L19.1338 22.31V18.6716L19.4264 18.5494C19.4264 18.5494 20.9052 17.8865 22.9853 17.6011C25.0613 17.3132 27.6073 17.6386 29.6084 18.5929C31.8626 19.4989 32.1152 20.8205 31.5449 21.7402C30.9663 22.6503 29.5634 23.3087 29.5634 23.3087L19.1338 28.0491" fill="white"/>
<path d="M2.27987 24.9528C-0.115832 24.1925 -0.515332 22.5859 0.577573 21.6579C1.58569 20.8105 3.30255 20.1726 3.30255 20.1726L10.3997 17.2899L10.3997 20.5708L5.2972 22.6544C4.39338 23.0227 4.25787 23.5409 4.98587 23.812C5.72687 24.0941 7.04189 24.0182 7.94623 23.6381L10.3997 22.6304V25.5593C10.2415 25.5895 10.0657 25.62 9.90524 25.6511C7.45908 26.1137 4.85296 25.9237 2.27987 24.9528Z" fill="white"/>
<path fill-rule="evenodd" clip-rule="evenodd" d="M31.6882 27.9453C31.4865 28.1528 31.2219 28.27 30.9369 28.27C30.652 28.27 30.3787 28.1528 30.1768 27.9453C29.9775 27.7341 29.8672 27.4583 29.8672 27.161C29.8672 26.5453 30.3455 26.0478 30.9369 26.0478C31.2219 26.0478 31.4865 26.1613 31.6882 26.3732C31.8875 26.5805 31.9999 26.861 31.9999 27.161C31.9999 27.4583 31.8875 27.7341 31.6882 27.9453ZM30.0469 27.1608C30.0469 26.9077 30.1379 26.6755 30.3039 26.5035C30.474 26.3277 30.7011 26.2329 30.937 26.2329C31.1731 26.2329 31.3944 26.3277 31.5605 26.5035C31.728 26.6755 31.8184 26.9077 31.8184 27.1608C31.8184 27.6681 31.4227 28.0798 30.937 28.0798C30.7011 28.0798 30.474 27.986 30.3039 27.8125C30.1379 27.6374 30.0469 27.4077 30.0469 27.1608ZM31.4237 27.6226C31.4333 27.6512 31.4447 27.6682 31.4612 27.6732L31.4761 27.6819V27.7525H31.2447L31.2404 27.7383L31.2246 27.6956C31.222 27.6732 31.2189 27.6438 31.2158 27.5944L31.2055 27.4011C31.2028 27.3325 31.1813 27.2926 31.1416 27.2662C31.1122 27.256 31.072 27.248 31.0122 27.248H30.6908V27.7525H30.48V26.5133H31.0327C31.1229 26.5133 31.1988 26.53 31.2569 26.5557C31.3734 26.6128 31.4333 26.7158 31.4333 26.8607C31.4333 26.9318 31.4163 26.9984 31.3871 27.0475C31.3617 27.0822 31.3318 27.1138 31.2993 27.1448L31.3079 27.1511C31.33 27.1673 31.3519 27.1833 31.3648 27.2068C31.3943 27.2408 31.4076 27.2976 31.41 27.3707L31.4153 27.5285C31.4163 27.5689 31.4194 27.6004 31.4237 27.6226ZM31.1744 27.0133C31.2086 26.9904 31.2246 26.9447 31.2246 26.8749C31.2246 26.8014 31.2002 26.7522 31.1523 26.7278C31.1229 26.7158 31.0863 26.7071 31.0373 26.7071H30.6908V27.0552H31.0181C31.0832 27.0552 31.1349 27.0413 31.1744 27.0133Z" fill="white"/>
</svg>
