<svg width="44" height="22" viewBox="0 0 44 22" fill="none" xmlns="http://www.w3.org/2000/svg">
<rect width="44" height="22" rx="11" fill="#5F81FB"/>
<circle cx="32" cy="11" r="9" fill="white"/>
<path d="M11.6358 14.048C11.2411 14.048 10.8944 14.0107 10.5958 13.936C10.3024 13.856 10.0544 13.7147 9.85177 13.512C9.65443 13.304 9.5051 13.0027 9.40377 12.608C9.30777 12.2134 9.25977 11.6987 9.25977 11.064C9.25977 10.424 9.31043 9.90671 9.41177 9.51204C9.5131 9.11204 9.66243 8.80804 9.85977 8.60004C10.0624 8.38671 10.3104 8.24004 10.6038 8.16004C10.9024 8.08004 11.2464 8.04004 11.6358 8.04004C12.0358 8.04004 12.3851 8.08004 12.6838 8.16004C12.9824 8.24004 13.2304 8.38671 13.4278 8.60004C13.6251 8.80804 13.7718 9.11204 13.8678 9.51204C13.9691 9.90671 14.0198 10.424 14.0198 11.064C14.0198 11.6987 13.9691 12.2134 13.8678 12.608C13.7718 13.0027 13.6224 13.304 13.4198 13.512C13.2224 13.7147 12.9744 13.856 12.6758 13.936C12.3824 14.0107 12.0358 14.048 11.6358 14.048ZM11.6358 13.16C11.8971 13.16 12.1158 13.1334 12.2918 13.08C12.4731 13.0214 12.6171 12.92 12.7238 12.776C12.8304 12.6267 12.9078 12.416 12.9558 12.144C13.0038 11.8667 13.0278 11.5067 13.0278 11.064C13.0278 10.5947 13.0011 10.2214 12.9478 9.94404C12.8998 9.66137 12.8224 9.44804 12.7158 9.30404C12.6091 9.15471 12.4678 9.05604 12.2918 9.00804C12.1158 8.95471 11.8971 8.92804 11.6358 8.92804C11.3904 8.92804 11.1798 8.95471 11.0038 9.00804C10.8278 9.05604 10.6838 9.15471 10.5718 9.30404C10.4651 9.44804 10.3851 9.66137 10.3318 9.94404C10.2784 10.2214 10.2518 10.5947 10.2518 11.064C10.2518 11.5067 10.2731 11.8667 10.3158 12.144C10.3638 12.416 10.4411 12.6267 10.5478 12.776C10.6544 12.92 10.7958 13.0214 10.9718 13.08C11.1531 13.1334 11.3744 13.16 11.6358 13.16Z" fill="white"/>
<path d="M15.0383 14V8.09604H15.8303L18.5183 12.312V8.09604H19.5103V14H18.7183L16.0303 9.78404V14H15.0383Z" fill="white"/>
</svg>
