<svg width="24" height="24" viewBox="0 0 24 24" fill="none" xmlns="http://www.w3.org/2000/svg">
<path fill-rule="evenodd" clip-rule="evenodd" d="M5.29279 5.29299C5.48031 5.10552 5.73462 5.0002 5.99979 5.0002C6.26495 5.0002 6.51926 5.10552 6.70679 5.29299L11.9998 10.586L17.2928 5.29299C17.385 5.19748 17.4954 5.1213 17.6174 5.06889C17.7394 5.01648 17.8706 4.98889 18.0034 4.98774C18.1362 4.98659 18.2678 5.01189 18.3907 5.06217C18.5136 5.11245 18.6253 5.1867 18.7192 5.28059C18.8131 5.37449 18.8873 5.48614 18.9376 5.60904C18.9879 5.73193 19.0132 5.86361 19.012 5.99639C19.0109 6.12917 18.9833 6.26039 18.9309 6.38239C18.8785 6.5044 18.8023 6.61474 18.7068 6.70699L13.4138 12L18.7068 17.293C18.8889 17.4816 18.9897 17.7342 18.9875 17.9964C18.9852 18.2586 18.88 18.5094 18.6946 18.6948C18.5092 18.8802 18.2584 18.9854 17.9962 18.9877C17.734 18.9899 17.4814 18.8891 17.2928 18.707L11.9998 13.414L6.70679 18.707C6.51818 18.8891 6.26558 18.9899 6.00339 18.9877C5.74119 18.9854 5.49038 18.8802 5.30497 18.6948C5.11956 18.5094 5.01439 18.2586 5.01211 17.9964C5.00983 17.7342 5.11063 17.4816 5.29279 17.293L10.5858 12L5.29279 6.70699C5.10532 6.51946 5 6.26515 5 5.99999C5 5.73483 5.10532 5.48052 5.29279 5.29299Z" fill="#515151"/>
</svg>
