<?xml version="1.0" encoding="utf-8"?>
<!-- Generator: Adobe Illustrator 24.0.2, SVG Export Plug-In . SVG Version: 6.00 Build 0)  -->
<svg width="16" height="16" version="1.1" id="Layer_1" xmlns="http://www.w3.org/2000/svg" xmlns:xlink="http://www.w3.org/1999/xlink" x="0px" y="0px"
	 viewBox="0 0 16 16" style="enable-background:new 0 0 16 16;" xml:space="preserve">
<style type="text/css">
	.st0{fill-rule:evenodd;clip-rule:evenodd;fill:#515151;}
	.st1{fill:#515151;}
</style>
<path class="st0" d="M11.9,16H9.4c-0.1,0-0.1-0.1-0.1-0.1V0.1C9.3,0,9.3,0,9.4,0h2.5C14.2,0,16,1.8,16,4.1v7.8
	C16,14.2,14.2,16,11.9,16z M14.1,8.8c0-0.9-0.7-1.6-1.6-1.6c-0.9,0-1.6,0.7-1.6,1.6s0.7,1.6,1.6,1.6C13.4,10.4,14.1,9.7,14.1,8.8z"
	/>
<path class="st1" d="M2.7,5.3C2.7,6,3.3,6.6,4,6.6S5.3,6,5.3,5.3S4.7,4,4,4S2.7,4.6,2.7,5.3z"/>
<path class="st0" d="M4.3,0h3.6L8,0.1v15.8c0,0-0.1,0.1-0.1,0.1H4.3C1.9,16,0,14.2,0,11.9V4.1C0,1.8,1.9,0,4.3,0z M4.3,14.7h2.4V1.3
	H4.3c-0.8,0-1.5,0.3-2.1,0.8s-0.9,1.2-0.9,2v7.8c0,0.8,0.3,1.5,0.9,2C2.7,14.4,3.5,14.7,4.3,14.7z"/>
</svg>
