<?xml version="1.0" encoding="utf-8"?>
<!-- Generator: Adobe Illustrator 24.0.2, SVG Export Plug-In . SVG Version: 6.00 Build 0)  -->
<svg width="16" height="16" version="1.1" id="Layer_1" xmlns="http://www.w3.org/2000/svg" xmlns:xlink="http://www.w3.org/1999/xlink" x="0px" y="0px"
	 viewBox="0 0 16 16" style="enable-background:new 0 0 16 16;" xml:space="preserve">
<style type="text/css">
	.st0{fill:#515151;}
	.st1{fill-rule:evenodd;clip-rule:evenodd;fill:#515151;}
</style>
<path class="st0" d="M6.4,1v12.2l2.5,0.9V3.8c0-0.5,0.2-0.8,0.5-0.7c0.4,0.1,0.5,0.6,0.5,1v4.1c1.6,0.8,2.8,0,2.8-2.2S12,2.8,9.8,2
	C9,1.7,7.4,1.2,6.4,1z"/>
<path class="st0" d="M9.6,12.3l3.8-1.7c0.4-0.2,0.5-0.5,0.1-0.6s-1-0.1-1.4,0.1l-2.6,1.1V9.3l0.1-0.1c0,0,0.7-0.3,1.8-0.5
	c1-0.1,2.3,0,3.3,0.5c1.1,0.5,1.3,1.1,1,1.6c-0.3,0.5-1,0.8-1,0.8L9.6,14"/>
<path class="st0" d="M1.1,12.5c-1.2-0.4-1.4-1.2-0.9-1.6c0.5-0.4,1.4-0.7,1.4-0.7l3.5-1.4v1.6l-2.6,1C2,11.6,2,11.8,2.3,12
	c0.6,0,1.2,0,1.7-0.2l1.2-0.5v1.5c-0.1,0-0.2,0-0.2,0C3.7,13.1,2.4,13,1.1,12.5z"/>
<path class="st1" d="M15.8,14c-0.1,0.1-0.2,0.2-0.4,0.2c-0.1,0-0.3-0.1-0.4-0.2c-0.1-0.1-0.2-0.2-0.2-0.4c0-0.3,0.2-0.6,0.5-0.6
	c0.1,0,0.3,0.1,0.4,0.2c0.1,0.1,0.2,0.2,0.2,0.4C16,13.7,15.9,13.9,15.8,14z M15,13.6c0-0.1,0-0.2,0.1-0.3s0.2-0.1,0.3-0.1
	s0.2,0,0.3,0.1s0.1,0.2,0.1,0.3c0,0.3-0.2,0.5-0.4,0.5c-0.1,0-0.2,0-0.3-0.1C15.1,13.8,15,13.7,15,13.6z M15.7,13.8L15.7,13.8
	L15.7,13.8L15.7,13.8L15.7,13.8L15.7,13.8L15.7,13.8c-0.1,0-0.1,0-0.1,0v-0.1v-0.1c0,0,0,0-0.1,0h-0.2v0.3h-0.1v-0.6h0.3h0.1
	c0.1,0,0.1,0.1,0.1,0.2v0.1l0,0l0,0l0,0c0,0,0,0,0,0.1V13.8L15.7,13.8z M15.6,13.5L15.6,13.5c0-0.1,0-0.1,0-0.1s0,0-0.1,0h-0.2v0.2
	L15.6,13.5C15.5,13.5,15.6,13.5,15.6,13.5z"/>
</svg>
