<?xml version="1.0" encoding="utf-8"?>
<!-- Generator: Adobe Illustrator 24.0.2, SVG Export Plug-In . SVG Version: 6.00 Build 0)  -->
<svg width="16" height="16" version="1.1" id="Layer_1" xmlns="http://www.w3.org/2000/svg" xmlns:xlink="http://www.w3.org/1999/xlink" x="0px" y="0px"
	 viewBox="0 0 16 16" style="enable-background:new 0 0 16 16;" xml:space="preserve">
<style type="text/css">
	.st0{fill-rule:evenodd;clip-rule:evenodd;fill:#515151;}
</style>
<path class="st0" d="M8,1.6c1.2,0,2.3,0.4,3.2,1.1l0,0l0,0c-1.2-0.3-3,0.9-3.2,1l0,0l0,0c-0.2-0.1-2-1.3-3.2-1l0,0l0,0
	C5.7,2,6.8,1.6,8,1.6z M12.1,12.9c1-1-2.2-4.5-4.1-5.9l0,0c-1.9,1.4-5,4.9-4.1,5.9c1.1,1,2.5,1.5,4.1,1.5S11,13.8,12.1,12.9z
	 M3.4,3.8C3.3,3.8,3.3,3.8,3.4,3.8C3.3,3.8,3.3,3.8,3.4,3.8C2.3,5,1.6,6.6,1.6,8.4c0,1.5,0.5,2.8,1.2,3.9l0,0l0,0
	c-0.5-1.5,1.8-5.2,3-6.7l0,0l0,0C4.1,3.5,3.5,3.7,3.4,3.8z M10.1,5.5L10.1,5.5c1.8-2,2.4-1.8,2.5-1.7l0,0l0,0
	c1.1,1.2,1.7,2.8,1.7,4.6c0,1.5-0.5,2.8-1.2,3.9l0,0l0,0C13.6,10.7,11.3,7,10.1,5.5L10.1,5.5z"/>
</svg>
