<svg width="44" height="22" viewBox="0 0 44 22" fill="none" xmlns="http://www.w3.org/2000/svg">
<rect width="44" height="22" rx="11" fill="#E1E1E4"/>
<circle cx="12" cy="11" r="9" fill="white"/>
<path d="M26.7764 14.048C26.3817 14.048 26.0351 14.0107 25.7364 13.936C25.4431 13.856 25.1951 13.7147 24.9924 13.512C24.7951 13.304 24.6457 13.0027 24.5444 12.608C24.4484 12.2133 24.4004 11.6987 24.4004 11.064C24.4004 10.424 24.4511 9.90668 24.5524 9.51201C24.6537 9.11201 24.8031 8.80801 25.0004 8.60001C25.2031 8.38668 25.4511 8.24001 25.7444 8.16001C26.0431 8.08001 26.3871 8.04001 26.7764 8.04001C27.1764 8.04001 27.5257 8.08001 27.8244 8.16001C28.1231 8.24001 28.3711 8.38668 28.5684 8.60001C28.7657 8.80801 28.9124 9.11201 29.0084 9.51201C29.1097 9.90668 29.1604 10.424 29.1604 11.064C29.1604 11.6987 29.1097 12.2133 29.0084 12.608C28.9124 13.0027 28.7631 13.304 28.5604 13.512C28.3631 13.7147 28.1151 13.856 27.8164 13.936C27.5231 14.0107 27.1764 14.048 26.7764 14.048ZM26.7764 13.16C27.0377 13.16 27.2564 13.1333 27.4324 13.08C27.6137 13.0213 27.7577 12.92 27.8644 12.776C27.9711 12.6267 28.0484 12.416 28.0964 12.144C28.1444 11.8667 28.1684 11.5067 28.1684 11.064C28.1684 10.5947 28.1417 10.2213 28.0884 9.94401C28.0404 9.66134 27.9631 9.44801 27.8564 9.30401C27.7497 9.15468 27.6084 9.05601 27.4324 9.00801C27.2564 8.95468 27.0377 8.92801 26.7764 8.92801C26.5311 8.92801 26.3204 8.95468 26.1444 9.00801C25.9684 9.05601 25.8244 9.15468 25.7124 9.30401C25.6057 9.44801 25.5257 9.66134 25.4724 9.94401C25.4191 10.2213 25.3924 10.5947 25.3924 11.064C25.3924 11.5067 25.4137 11.8667 25.4564 12.144C25.5044 12.416 25.5817 12.6267 25.6884 12.776C25.7951 12.92 25.9364 13.0213 26.1124 13.08C26.2937 13.1333 26.5151 13.16 26.7764 13.16Z" fill="#939393"/>
<path d="M30.1149 14V9.38401C30.1149 9.13334 30.1522 8.92534 30.2269 8.76001C30.3016 8.58934 30.4002 8.45601 30.5229 8.36001C30.6509 8.26401 30.7896 8.19734 30.9389 8.16001C31.0936 8.11734 31.2456 8.09601 31.3949 8.09601C31.6029 8.09601 31.8482 8.09868 32.1309 8.10401C32.4136 8.10401 32.7096 8.11201 33.0189 8.12801C33.3282 8.13868 33.6269 8.15734 33.9149 8.18401V9.00801H31.6589C31.4829 9.00801 31.3442 9.05868 31.2429 9.16001C31.1469 9.25601 31.0989 9.38934 31.0989 9.56001V10.752L33.5549 10.808V11.584L31.0989 11.64V14H30.1149Z" fill="#939393"/>
<path d="M34.654 14V9.38401C34.654 9.13334 34.6913 8.92534 34.766 8.76001C34.8406 8.58934 34.9393 8.45601 35.062 8.36001C35.19 8.26401 35.3286 8.19734 35.478 8.16001C35.6326 8.11734 35.7846 8.09601 35.934 8.09601C36.142 8.09601 36.3873 8.09868 36.67 8.10401C36.9526 8.10401 37.2486 8.11201 37.558 8.12801C37.8673 8.13868 38.166 8.15734 38.454 8.18401V9.00801H36.198C36.022 9.00801 35.8833 9.05868 35.782 9.16001C35.686 9.25601 35.638 9.38934 35.638 9.56001V10.752L38.094 10.808V11.584L35.638 11.64V14H34.654Z" fill="#939393"/>
</svg>
